<?xml version="1.0" encoding="UTF-8"?>
<svg version="1.1" xmlns="http://www.w3.org/2000/svg" width="1081" height="980">
<path d="M0 0 C1.01549549 -0.00611329 1.01549549 -0.00611329 2.05150604 -0.01235008 C5.65526512 -0.03316721 9.25898695 -0.04747139 12.86279297 -0.05688477 C15.7832604 -0.065627 18.70323357 -0.08622059 21.62353516 -0.1184082 C49.61839976 -0.41994995 75.93755521 2.92482261 103.046875 10.23828125 C104.00513184 10.49448242 104.96338867 10.75068359 105.95068359 11.01464844 C135.91790925 19.17589185 165.51547697 32.46946708 191.046875 50.23828125 C191.72153809 50.70089355 192.39620117 51.16350586 193.09130859 51.64013672 C202.06966015 57.80285156 210.75451469 64.16782811 219.046875 71.23828125 C220.15439378 72.1608219 221.26249972 73.08265798 222.37109375 74.00390625 C230.71672364 80.99116031 238.46651728 88.43126832 246.046875 96.23828125 C250.19021753 92.81552003 254.04096044 89.27169377 257.796875 85.42578125 C262.04671597 81.13100239 266.49289212 77.27607179 271.21484375 73.51171875 C274.10942603 71.18806787 276.917331 68.78006866 279.734375 66.36328125 C327.67175183 26.44631496 394.20747672 0.01290166 456.78125 -0.09765625 C458.15244671 -0.1041235 459.5236422 -0.11085432 460.89483643 -0.11782837 C463.75202613 -0.12968704 466.60909609 -0.13352179 469.46630859 -0.13232422 C472.33212861 -0.13216288 475.19730112 -0.14587766 478.06298828 -0.17333984 C511.35943918 -0.48723238 543.47885471 4.3411075 575.046875 15.23828125 C575.74844727 15.47595215 576.45001953 15.71362305 577.17285156 15.95849609 C615.96177078 29.20868197 653.43443628 50.21190699 683.2265625 78.56640625 C685.49546488 80.71589272 687.79208478 82.77747783 690.171875 84.80078125 C698.05874144 91.63717711 705.37615326 99.21768851 712.046875 107.23828125 C712.49756348 107.77517578 712.94825195 108.31207031 713.41259766 108.86523438 C725.08159113 122.80392348 735.83283128 137.31477105 744.84130859 153.12548828 C745.68832977 154.60991949 746.5435676 156.08967774 747.40478516 157.56591797 C765.55107261 188.76770699 778.20716097 223.59424874 784.046875 259.23828125 C784.23269638 260.30284546 784.23269638 260.30284546 784.42227173 261.38891602 C787.10061106 277.00074899 787.54872249 292.46491298 787.49291992 308.27636719 C787.48376544 310.99054934 787.49059678 313.703868 787.51342773 316.41796875 C787.89907288 362.56853592 777.76879618 408.82903308 757.046875 450.23828125 C756.63501953 451.07681641 756.22316406 451.91535156 755.79882812 452.77929688 C737.56747023 489.70807746 711.58692663 519.85480074 682.66052246 548.76507568 C680.79679943 550.63138617 678.93327172 552.49788987 677.06997538 554.36462617 C672.505305 558.93682418 667.93799509 563.50637681 663.36983886 568.07509174 C657.89309185 573.55275749 652.41922915 579.03330223 646.94539695 584.51388047 C633.72821306 597.74706621 620.50600489 610.97522704 607.28321521 624.20281096 C601.02858818 630.45977756 594.77459299 636.71737555 588.52067285 642.9750487 C567.10926825 664.39927727 545.69681438 685.82245633 524.28072357 707.24200058 C522.93851738 708.5844284 521.59631127 709.92685629 520.25410524 711.26928426 C518.90872035 712.61488979 517.56333539 713.96049524 516.21795034 715.30610061 C513.51899614 718.00549736 510.82004422 720.70489639 508.12109375 723.40429688 C507.45191856 724.07358145 506.78274338 724.74286603 506.09329016 725.43243195 C484.35663034 747.17272883 462.62613547 768.91917405 440.89929604 790.66928495 C417.92076086 813.67238733 394.9368204 836.67007491 371.94659662 859.66149545 C369.42607309 862.18219044 366.90557155 864.70290741 364.38508606 867.22364044 C363.76448212 867.84430015 363.14387817 868.46495987 362.50446805 869.10442745 C352.50142916 879.10861876 342.50334112 889.11774388 332.50699318 899.12862037 C322.47567247 909.17426926 312.43884589 919.21439034 302.39632791 929.24884567 C296.42439897 935.21630273 290.45671049 941.18792963 284.49490807 947.16550402 C280.05427758 951.61696565 275.60593259 956.06063897 271.15442163 960.50121859 C269.34656172 962.30710272 267.54127751 964.11556948 265.73872918 965.9267554 C263.30365897 968.37276144 260.85969581 970.80950609 258.41310883 973.24398422 C257.70217874 973.9625095 256.99124866 974.68103478 256.25877523 975.42133355 C255.60981409 976.06329659 254.96085295 976.70525963 254.29222631 977.36667609 C253.73362515 977.92552146 253.17502398 978.48436683 252.5994955 979.06014691 C251.046875 980.23828125 251.046875 980.23828125 248.046875 980.23828125 C220.9246876 906.72780092 201.71309605 829.91093442 200.046875 751.23828125 C200.02197998 750.18229736 200.02197998 750.18229736 199.99658203 749.10498047 C199.9073038 744.81190978 199.95271885 740.53094559 200.046875 736.23828125 C200.06572754 735.05419678 200.06572754 735.05419678 200.08496094 733.84619141 C200.83571593 692.74618583 207.63557646 651.8017625 222.046875 613.23828125 C222.60058273 613.26726501 223.15429047 613.29624878 223.72477722 613.32611084 C239.93843044 614.15355641 256.12545007 614.47888686 272.359375 614.48828125 C274.19331314 614.48979187 274.19331314 614.48979187 276.06430054 614.49133301 C295.89800599 614.48034275 315.36962431 613.74270721 335.046875 611.23828125 C336.22797852 611.09374512 337.40908203 610.94920898 338.62597656 610.80029297 C381.52561181 605.43040516 424.8161143 593.77511608 463.046875 573.23828125 C464.3127264 572.58515055 465.57967641 571.93414517 466.84765625 571.28515625 C499.77594113 554.29884193 530.16094318 529.36221879 553.046875 500.23828125 C553.93973304 499.16678457 554.83573905 498.09790555 555.734375 497.03125 C581.84267972 465.75158595 601.40108428 427.4664404 615.046875 389.23828125 C615.27203796 388.60897705 615.49720093 387.97967285 615.72918701 387.33129883 C633.82785246 336.60161005 643.74639948 284.95150792 647.046875 231.23828125 C646.41595947 231.19364746 645.78504395 231.14901367 645.13500977 231.10302734 C638.61193955 230.58221629 632.23731551 229.65065107 625.79321289 228.52416992 C536.44826371 213.0215241 439.09111386 220.98431098 357.046875 261.23828125 C356.20866211 261.6451416 355.37044922 262.05200195 354.50683594 262.47119141 C336.44461833 271.3140767 319.61864534 282.52704311 304.046875 295.23828125 C303.2432251 295.88966064 303.2432251 295.88966064 302.42333984 296.55419922 C288.31306611 308.06013131 275.22167285 320.85326874 264.046875 335.23828125 C263.14649625 336.3295268 262.24262397 337.41789594 261.3359375 338.50390625 C252.27514794 349.43986171 244.35845824 361.1584005 236.82421875 373.19091797 C235.94763349 374.57251014 235.00510179 375.91200825 234.046875 377.23828125 C233.386875 377.23828125 232.726875 377.23828125 232.046875 377.23828125 C231.77125732 376.55540039 231.49563965 375.87251953 231.21166992 375.16894531 C197.95180297 293.30483246 130.7836596 234.30336519 51.09619141 198.18359375 C49.22354741 197.31977703 47.37394281 196.40645703 45.52734375 195.48828125 C30.06203601 187.85283789 13.40022521 182.63103485 -2.953125 177.23828125 C-20.81702905 212.91597018 -34.32872776 249.17885807 -42.953125 288.23828125 C-43.14213379 289.05925293 -43.33114258 289.88022461 -43.52587891 290.72607422 C-59.13262382 358.63726686 -54.65492722 432.07726058 -21.953125 494.23828125 C-21.48648437 495.16253906 -21.01984375 496.08679688 -20.5390625 497.0390625 C-11.47606586 514.50255603 0.72194 530.58461722 14.01953125 545.02734375 C15.8083084 546.97811036 17.52530619 548.9680852 19.234375 550.98828125 C27.17391689 560.06993821 35.82859466 568.57408979 45.296875 576.046875 C47.76188906 578.01118308 50.14767637 580.04472566 52.52416992 582.11450195 C80.37652566 606.25206636 113.21850722 623.92053792 146.046875 640.23828125 C145.51109365 646.98873944 144.51667913 653.59326045 143.33300781 660.25854492 C130.74396653 731.27877524 135.86017152 803.28018233 150.45581055 873.53149414 C150.71296341 874.77184166 150.71296341 874.77184166 150.97531128 876.0372467 C151.29861821 877.5899512 151.62496919 879.14202606 151.9548645 880.69334412 C152.5639419 883.60352945 153.046875 886.25533395 153.046875 889.23828125 C150.046875 889.23828125 150.046875 889.23828125 148.72926652 887.99864608 C148.24441368 887.38713972 147.75956084 886.77563336 147.26001549 886.1455965 C143.88458102 882.12518737 140.31166354 878.38781387 136.60404396 874.67798901 C135.68139526 873.75391699 135.68139526 873.75391699 134.7401072 872.81117686 C132.70756264 870.779236 130.67210476 868.75023961 128.6366272 866.72123718 C127.15597951 865.24158635 125.67555567 863.76171148 124.19533575 862.28163272 C120.13759756 858.22553641 116.07675806 854.17255757 112.01541376 850.12007248 C107.63174712 845.74484888 103.25100702 841.36669685 98.86994934 836.98886108 C91.28030524 829.40551107 83.68894485 821.82388369 76.09651566 814.24332237 C64.60136908 802.76603853 53.1104644 791.28451353 41.62042239 779.80211976 C37.00555601 775.19036237 32.39055307 770.57874162 27.77554893 765.96712208 C27.26286396 765.45481187 26.75017898 764.94250166 26.22195809 764.41466691 C14.02628696 752.22796268 1.82926927 740.04260648 -10.36816406 727.85766602 C-10.90165555 727.32471893 -11.43514704 726.79177184 -11.98480495 726.24267484 C-24.43053818 713.80966474 -36.8769146 701.37729896 -49.32440186 688.94604492 C-49.85972907 688.4114149 -50.39505628 687.87678487 -50.94660553 687.32595394 C-53.64603531 684.63004183 -56.34546967 681.9341343 -59.04490431 679.23822705 C-59.57842209 678.70540605 -60.11193987 678.17258505 -60.66162485 677.62361796 C-61.73847769 676.54817188 -62.81533128 675.47272655 -63.89218563 674.39728199 C-81.69624141 656.61649249 -99.49688523 638.83229291 -117.29379419 621.04435003 C-119.80864106 618.53077966 -122.32353405 616.01725543 -124.83845901 613.5037632 C-125.33337773 613.00912583 -125.82829644 612.51448847 -126.33821269 612.00486209 C-134.29153164 604.05629302 -142.2485451 596.11143236 -150.20705152 588.1680576 C-158.20934007 580.18086794 -166.20798611 572.19004843 -174.20316003 564.19573577 C-178.53179172 559.86780726 -182.86204305 555.54153232 -187.19671059 551.21964836 C-191.16853294 547.25947787 -195.13566862 543.29467337 -199.09920569 539.32621107 C-200.53009848 537.89516759 -201.9626751 536.46580526 -203.39714567 535.03834816 C-211.05100903 527.41996229 -218.32733839 519.78456487 -224.953125 511.23828125 C-225.55598308 510.47558872 -226.15884116 509.7128962 -226.77996767 508.92709178 C-257.11494683 470.53452622 -278.61834374 425.96120636 -288.765625 377.98828125 C-289.03959106 376.69893677 -289.03959106 376.69893677 -289.3190918 375.38354492 C-289.92305377 372.34309155 -290.4450058 369.29631585 -290.953125 366.23828125 C-291.07807343 365.52536926 -291.20302185 364.81245728 -291.33175659 364.07794189 C-294.01296727 348.4709186 -294.45494876 333.00704086 -294.39916992 317.20019531 C-294.39001544 314.48601316 -294.39684678 311.7726945 -294.41967773 309.05859375 C-295.12309106 224.87549529 -259.23874328 148.61673051 -201.4765625 88.66796875 C-196.82539718 83.95286989 -192.00634054 79.51685056 -186.953125 75.23828125 C-186.11652344 74.51253906 -185.27992188 73.78679687 -184.41796875 73.0390625 C-137.82645003 33.24080511 -81.28240731 9.82412503 -20.953125 1.23828125 C-19.97641846 1.06248535 -18.99971191 0.88668945 -17.9934082 0.70556641 C-12.0422522 -0.13605227 -5.99727645 0.03405275 0 0 Z " fill="#7FC823" transform="translate(293.953125,-0.23828125)"/>
<path d="M0 0 C2.84282665 0.00540461 5.68549813 -0.00000643 8.52832031 -0.00634766 C17.37777859 -0.00924134 26.15595544 -0.00278749 34.95019531 1.13037109 C33.6784426 11.68926534 31.55614905 21.83480162 28.95019531 32.13037109 C28.75489227 32.9073938 28.55958923 33.6844165 28.35836792 34.48498535 C22.22144897 58.76550248 14.16764966 82.2469844 3.95019531 105.13037109 C3.55364746 106.0251416 3.15709961 106.91991211 2.74853516 107.84179688 C-8.26498186 132.47005862 -22.40259536 155.67787525 -40.04980469 176.13037109 C-41.01853516 177.26539063 -41.01853516 177.26539063 -42.00683594 178.42333984 C-44.30322303 181.04464595 -46.66156121 183.5922236 -49.04980469 186.13037109 C-49.62166504 186.74154785 -50.19352539 187.35272461 -50.78271484 187.98242188 C-66.76592989 204.92912064 -84.53601371 218.1492987 -105.04980469 229.13037109 C-105.71367188 229.49179199 -106.37753906 229.85321289 -107.06152344 230.22558594 C-155.30151566 256.31481094 -211.88106999 264.4389238 -266.04980469 264.19287109 C-268.00032436 264.18784064 -269.9508453 264.18328049 -271.90136719 264.17919922 C-276.61754521 264.16832856 -281.33366035 264.15115129 -286.04980469 264.13037109 C-283.10288685 258.55787486 -280.018292 253.40453769 -276.04980469 248.50537109 C-275.33715454 247.61615967 -275.33715454 247.61615967 -274.61010742 246.70898438 C-273.10109402 244.84007459 -271.57802935 242.98359397 -270.04980469 241.13037109 C-269.33074951 240.25251953 -269.33074951 240.25251953 -268.59716797 239.35693359 C-255.95813836 224.03173771 -241.93412113 209.11520902 -226.04980469 197.13037109 C-224.745211 196.11108235 -223.44193816 195.09010185 -222.13964844 194.06787109 C-207.80205341 182.87547648 -192.86615842 173.0997694 -177.04980469 164.13037109 C-176.43169922 163.7773291 -175.81359375 163.42428711 -175.17675781 163.06054688 C-161.41474478 155.25684296 -146.86944127 148.9863482 -131.86230469 144.00537109 C-122.86746683 140.96468628 -114.69552782 136.99849496 -110.01464844 128.35302734 C-106.12585113 119.39462382 -104.93517436 111.18294901 -107.77246094 101.72021484 C-111.17762127 93.12623877 -116.81256897 87.29730633 -124.93652344 83.04052734 C-137.56186814 77.60299441 -150.79226443 82.15790972 -162.83398438 86.82861328 C-195.29695266 99.96955975 -228.27094654 116.30369641 -255.22949219 138.96240234 C-256.13054688 139.54054688 -256.13054688 139.54054688 -257.04980469 140.13037109 C-258.03980469 139.80037109 -259.02980469 139.47037109 -260.04980469 139.13037109 C-254.46331628 128.82742116 -248.84726048 118.69758816 -242.04980469 109.13037109 C-241.56560059 108.43862793 -241.08139648 107.74688477 -240.58251953 107.03417969 C-232.72733092 95.8535408 -224.34466706 85.60284152 -214.75585938 75.8671875 C-213.20355293 74.28689155 -211.67420026 72.68820883 -210.15136719 71.07958984 C-203.32966415 64.00782437 -195.91346286 57.98384276 -188.04980469 52.13037109 C-187.19644531 51.49357422 -186.34308594 50.85677734 -185.46386719 50.20068359 C-132.3130516 11.88265375 -64.26417797 -0.14529292 0 0 Z " fill="#7FC823" transform="translate(835.0498046875,285.86962890625)"/>
<path d="M0 0 C3.6154129 1.1432059 6.96406728 2.36363854 10.29296875 4.1796875 C11.07808838 4.60741455 11.86320801 5.0351416 12.67211914 5.47583008 C13.50219482 5.93755615 14.33227051 6.39928223 15.1875 6.875 C16.06462646 7.36186279 16.94175293 7.84872559 17.84545898 8.3503418 C39.01347831 20.22499183 58.76053962 33.97722437 77 50 C77.61383545 50.52770996 78.2276709 51.05541992 78.86010742 51.59912109 C90.19383551 61.38464621 100.96745609 72.04009784 110 84 C110.46937988 84.59876953 110.93875977 85.19753906 111.42236328 85.81445312 C147.55421185 132.01769885 155.46360363 188.85327841 148.54345703 245.75390625 C146.52138693 260.40760158 143.51802907 274.78506701 139.9375 289.125 C139.77191589 289.78859528 139.60633179 290.45219055 139.43572998 291.13589478 C137.31529564 299.55605418 134.87141603 307.80547165 132 316 C109.68850693 311.19208337 86.60851518 291.90710216 69 278 C68.00871094 277.22140625 67.01742187 276.4428125 65.99609375 275.640625 C59.04948629 270.06752883 52.44684587 264.13899593 46 258 C45.02039307 257.0713916 45.02039307 257.0713916 44.02099609 256.12402344 C33.55918203 246.14072746 24.39345214 235.76926748 16 224 C15.56139648 223.40606445 15.12279297 222.81212891 14.67089844 222.20019531 C-18.15261961 177.73856112 -23.41119729 119.82782353 -16.03515625 66.63671875 C-14.00323171 53.21588385 -11.22510695 40.03543573 -7.9375 26.875 C-7.77191589 26.21149536 -7.60633179 25.54799072 -7.43572998 24.86437988 C-5.31530265 16.44411698 -2.8714491 8.19462273 0 0 Z " fill="#7FC823" transform="translate(325,260)"/>
</svg>
